<svg width="16" height="20" viewBox="0 0 16 20" fill="none" xmlns="http://www.w3.org/2000/svg">
<g clip-path="url(#clip0_1_1781)">
<path d="M7.89945 14.0981C6.99724 14.8901 6.12259 15.6476 5.25482 16.4121C3.9876 17.5209 2.7135 18.6366 1.44628 19.7454C1.19146 19.9727 0.902204 20.076 0.557851 19.9383C0.206612 19.8005 0.0344353 19.5457 0.0137741 19.1807C0 19.0498 0 18.9259 0 18.8019C0 12.9479 0 7.09392 0 1.23304C0 1.07464 0.00688705 0.909348 0.0275482 0.750945C0.0826446 0.323948 0.365014 0.0553533 0.798898 0.00714397C0.902204 -0.00663013 1.00551 0.000256919 1.10882 0.000256919C5.6405 0.000256919 10.1791 0.000256919 14.7107 0.00714397C15.4959 0.00714397 15.7989 0.2964 15.7989 1.08152C15.7989 7.03194 15.8058 12.9755 15.792 18.9259C15.792 19.1945 15.7094 19.5044 15.551 19.7179C15.2617 20.1104 14.7521 20.0898 14.3388 19.7248C12.8788 18.4507 11.4187 17.1697 9.95868 15.8956C9.28375 15.3033 8.60882 14.7179 7.89945 14.0981ZM14.0771 1.70136C9.95179 1.70136 5.84711 1.70136 1.72865 1.70136C1.72865 6.88042 1.72865 12.0319 1.72865 17.2248C1.81129 17.1697 1.8595 17.1421 1.90083 17.1077C3.62948 15.5994 5.35813 14.0843 7.07989 12.5691C7.74793 11.9837 8.04408 11.9768 8.70523 12.5622C10.0758 13.7675 11.4463 14.9727 12.8237 16.1711C13.2231 16.5223 13.6295 16.8735 14.0771 17.2592C14.0771 12.0319 14.0771 6.87353 14.0771 1.70136Z" fill="#064851"/>
</g>
<defs>
<clipPath id="clip0_1_1781">
<rect width="15.7989" height="20" fill="white"/>
</clipPath>
</defs>
</svg>
