<svg width="21" height="21" viewBox="0 0 21 21" fill="none" xmlns="http://www.w3.org/2000/svg">
<g clip-path="url(#clip0_1_1798)">
<path d="M10.4999 16.3319C8.8655 14.3755 7.2806 12.4811 5.6214 10.4875C6.68626 10.4875 7.65206 10.4875 8.69215 10.4875C8.69215 8.50641 8.69215 6.59957 8.69215 4.66797C9.91798 4.66797 11.0695 4.66797 12.3077 4.66797C12.3077 6.57481 12.3077 8.48165 12.3077 10.4256C13.3354 10.4256 14.2765 10.4256 15.3909 10.4256C13.7193 12.4439 12.1468 14.3508 10.4999 16.3319Z" fill="white"/>
<path d="M10.5618 18.6473C8.54353 18.6473 6.51286 18.6473 4.49459 18.6473C3.5164 18.6473 3.12018 18.2387 3.10779 17.2605C3.10779 16.6414 3.07065 16.0223 3.12018 15.4032C3.14494 15.1556 3.3802 14.9203 3.52878 14.6851C3.66499 14.9327 3.90025 15.1556 3.92501 15.4156C3.98692 16.0471 3.96216 16.691 3.94978 17.3348C3.93739 17.7682 4.12312 17.9044 4.54411 17.9044C8.54352 17.892 12.5553 17.892 16.5547 17.9044C17.0748 17.9044 17.2481 17.7187 17.2234 17.211C17.1986 16.5548 17.1862 15.8861 17.2357 15.2299C17.2481 15.0441 17.471 14.8708 17.5948 14.6974C17.731 14.8708 17.9663 15.0318 17.9787 15.2175C18.0158 15.9728 18.0034 16.7405 17.991 17.5082C17.9787 18.2511 17.5453 18.6597 16.7652 18.6597C14.685 18.6473 12.6172 18.6473 10.5618 18.6473Z" fill="white"/>
<path d="M12.2702 3.26904C12.2702 3.54145 12.2702 3.78909 12.2702 4.0615C11.0815 4.0615 9.91762 4.0615 8.72894 4.0615C8.72894 3.80147 8.72894 3.56621 8.72894 3.26904C9.89286 3.26904 11.0444 3.26904 12.2702 3.26904Z" fill="white"/>
<path d="M8.74213 1.82031C9.93081 1.82031 11.0823 1.82031 12.271 1.82031C12.271 2.09272 12.271 2.35274 12.271 2.63753C11.1195 2.63753 9.95557 2.63753 8.74213 2.63753C8.74213 2.38989 8.74213 2.14225 8.74213 1.82031Z" fill="white"/>
<path d="M10.4999 16.3319C8.8655 14.3755 7.2806 12.4811 5.6214 10.4875C6.68626 10.4875 7.65206 10.4875 8.69215 10.4875C8.69215 8.50641 8.69215 6.59957 8.69215 4.66797C9.91798 4.66797 11.0695 4.66797 12.3077 4.66797C12.3077 6.57481 12.3077 8.48165 12.3077 10.4256C13.3354 10.4256 14.2765 10.4256 15.3909 10.4256C13.7193 12.4439 12.1468 14.3508 10.4999 16.3319Z" fill="white"/>
<path d="M10.5618 18.6473C8.54353 18.6473 6.51286 18.6473 4.49459 18.6473C3.5164 18.6473 3.12018 18.2387 3.10779 17.2605C3.10779 16.6414 3.07065 16.0223 3.12018 15.4032C3.14494 15.1556 3.3802 14.9203 3.52878 14.6851C3.66499 14.9327 3.90025 15.1556 3.92501 15.4156C3.98692 16.0471 3.96216 16.691 3.94978 17.3348C3.93739 17.7682 4.12312 17.9044 4.54411 17.9044C8.54352 17.892 12.5553 17.892 16.5547 17.9044C17.0748 17.9044 17.2481 17.7187 17.2234 17.211C17.1986 16.5548 17.1862 15.8861 17.2357 15.2299C17.2481 15.0441 17.471 14.8708 17.5948 14.6974C17.731 14.8708 17.9663 15.0318 17.9787 15.2175C18.0158 15.9728 18.0034 16.7405 17.991 17.5082C17.9787 18.2511 17.5453 18.6597 16.7652 18.6597C14.685 18.6473 12.6172 18.6473 10.5618 18.6473Z" fill="white"/>
<path d="M12.2702 3.26904C12.2702 3.54145 12.2702 3.78909 12.2702 4.0615C11.0815 4.0615 9.91762 4.0615 8.72894 4.0615C8.72894 3.80147 8.72894 3.56621 8.72894 3.26904C9.89286 3.26904 11.0444 3.26904 12.2702 3.26904Z" fill="white"/>
<path d="M8.74213 1.82031C9.93081 1.82031 11.0823 1.82031 12.271 1.82031C12.271 2.09272 12.271 2.35274 12.271 2.63753C11.1195 2.63753 9.95557 2.63753 8.74213 2.63753C8.74213 2.38989 8.74213 2.14225 8.74213 1.82031Z" fill="white"/>
</g>
<defs>
<clipPath id="clip0_1_1798">
<rect width="21" height="21" rx="2.625" fill="white"/>
</clipPath>
</defs>
</svg>
