<svg width="24" height="24" viewBox="0 0 24 24" fill="none" xmlns="http://www.w3.org/2000/svg">
<path d="M12 2C10.0222 2 8.08879 2.58649 6.4443 3.6853C4.79981 4.78412 3.51809 6.3459 2.76121 8.17317C2.00433 10.0004 1.8063 12.0111 2.19215 13.9509C2.578 15.8907 3.53041 17.6725 4.92894 19.0711C6.32746 20.4696 8.10929 21.422 10.0491 21.8079C11.9889 22.1937 13.9996 21.9957 15.8268 21.2388C17.6541 20.4819 19.2159 19.2002 20.3147 17.5557C21.4135 15.9112 22 13.9778 22 12C22 10.6868 21.7413 9.38642 21.2388 8.17317C20.7363 6.95991 19.9997 5.85752 19.0711 4.92893C18.1425 4.00035 17.0401 3.26375 15.8268 2.7612C14.6136 2.25866 13.3132 2 12 2ZM12 20C10.4178 20 8.87104 19.5308 7.55544 18.6518C6.23985 17.7727 5.21447 16.5233 4.60897 15.0615C4.00347 13.5997 3.84504 11.9911 4.15372 10.4393C4.4624 8.88743 5.22433 7.46197 6.34315 6.34315C7.46197 5.22433 8.88743 4.4624 10.4393 4.15372C11.9911 3.84504 13.5997 4.00346 15.0615 4.60896C16.5233 5.21447 17.7727 6.23984 18.6518 7.55544C19.5308 8.87103 20 10.4177 20 12C20 14.1217 19.1572 16.1566 17.6569 17.6569C16.1566 19.1571 14.1217 20 12 20Z" fill="#064851"/>
<g clip-path="url(#clip0_1_1773)">
<path d="M10.511 10.9171C10.5596 10.6495 10.5596 10.6495 10.8029 10.6008C11.5085 10.4791 12.1898 10.3818 12.8954 10.2602C13.0414 10.2358 13.2117 10.2358 13.4063 10.2358C13.382 10.3332 13.3577 10.4305 13.3333 10.5035C12.8711 12.1337 12.4088 13.7638 11.9221 15.3697C11.8978 15.4913 11.8492 15.613 11.8492 15.7346C11.8492 15.8076 11.8978 15.9293 11.9465 15.9779C12.0195 16.0266 12.1411 16.0023 12.2141 15.9536C12.3601 15.8319 12.5061 15.686 12.6277 15.54C12.7737 15.3697 12.8954 15.175 13.0414 14.9804C13.1144 15.029 13.1874 15.0534 13.2847 15.1264C13.1144 15.394 12.944 15.6373 12.7494 15.8806C12.4574 16.2699 12.1168 16.6105 11.6545 16.8052C11.3382 16.9512 11.0219 16.9998 10.6813 16.9025C10.1703 16.7809 9.90268 16.3429 10.0243 15.8076C10.146 15.248 10.3163 14.7127 10.4623 14.1774C10.7056 13.3259 10.9489 12.45 11.1922 11.5984C11.3625 11.0388 11.0462 10.8198 10.6083 10.8684C10.5839 10.9171 10.5596 10.9171 10.511 10.9171Z" fill="#064851"/>
<path d="M12.944 6.99999C13.528 6.97566 13.9659 7.41361 13.9902 8.02189C14.0146 8.5815 13.5523 9.04378 13.017 9.06812C12.4087 9.06812 11.9465 8.63016 11.9221 8.04622C11.9221 7.48661 12.3601 7.02432 12.944 6.99999Z" fill="#064851"/>
</g>
<defs>
<clipPath id="clip0_1_1773">
<rect width="3.99027" height="10" fill="white" transform="translate(10 7)"/>
</clipPath>
</defs>
</svg>
