<svg width="22" height="23" viewBox="0 0 22 23" fill="none" xmlns="http://www.w3.org/2000/svg">
<g clip-path="url(#clip0_1_2123)">
<path d="M8.05979 16.1278C3.60157 16.1112 -0.016578 12.4931 5.71336e-05 8.05148C0.0166923 3.5683 3.64316 -0.0165775 8.13465 5.76609e-05C12.543 0.0166928 16.1528 3.66811 16.1278 8.08475C16.1112 12.5347 12.4931 16.1445 8.05979 16.1278ZM8.06811 1.7717C4.608 1.7717 1.78002 4.59136 1.7717 8.04316C1.76338 11.5199 4.58304 14.3479 8.05147 14.3479C11.5282 14.3479 14.3479 11.5365 14.3562 8.07643C14.3645 4.59968 11.5449 1.7717 8.06811 1.7717Z" fill="black"/>
<path d="M12.5181 16.6685C13.7241 15.4541 14.9302 14.2564 16.1528 13.0254C16.2111 13.0919 16.2693 13.1751 16.3442 13.25C17.9661 14.8802 19.5963 16.5021 21.2183 18.1324C22.2829 19.197 22.2496 20.8689 21.16 21.867C20.1453 22.7902 18.5982 22.757 17.6084 21.7755C16.602 20.7774 15.6122 19.7793 14.6058 18.7812C13.9404 18.1157 13.2666 17.442 12.6012 16.7766C12.5763 16.735 12.543 16.7018 12.5181 16.6685Z" fill="black"/>
<path d="M7.78524 3.71777C7.78524 4.17524 7.78524 4.59944 7.78524 5.03195C5.7308 5.11513 4.69942 6.27127 4.4083 8.2259C3.99243 8.2259 3.56823 8.2259 3.11908 8.2259C3.21889 7.06976 3.52664 6.00511 4.33345 5.14008C5.26502 4.15861 6.44611 3.776 7.78524 3.71777Z" fill="black"/>
<path d="M8.05979 16.1278C3.60157 16.1112 -0.016578 12.4931 5.71336e-05 8.05148C0.0166923 3.5683 3.64316 -0.0165775 8.13465 5.76609e-05C12.543 0.0166928 16.1528 3.66811 16.1278 8.08475C16.1112 12.5347 12.4931 16.1445 8.05979 16.1278ZM8.06811 1.7717C4.608 1.7717 1.78002 4.59136 1.7717 8.04316C1.76338 11.5199 4.58304 14.3479 8.05147 14.3479C11.5282 14.3479 14.3479 11.5365 14.3562 8.07643C14.3645 4.59968 11.5449 1.7717 8.06811 1.7717Z" fill="white"/>
<path d="M12.5181 16.6685C13.7241 15.4541 14.9302 14.2564 16.1528 13.0254C16.2111 13.0919 16.2693 13.1751 16.3442 13.25C17.9661 14.8802 19.5963 16.5021 21.2183 18.1324C22.2829 19.197 22.2496 20.8689 21.16 21.867C20.1453 22.7902 18.5982 22.757 17.6084 21.7755C16.602 20.7774 15.6122 19.7793 14.6058 18.7812C13.9404 18.1157 13.2666 17.442 12.6012 16.7766C12.5763 16.735 12.543 16.7018 12.5181 16.6685Z" fill="white"/>
<path d="M7.78524 3.71777C7.78524 4.17524 7.78524 4.59944 7.78524 5.03195C5.7308 5.11513 4.69942 6.27127 4.4083 8.2259C3.99243 8.2259 3.56823 8.2259 3.11908 8.2259C3.21889 7.06976 3.52664 6.00511 4.33345 5.14008C5.26502 4.15861 6.44611 3.776 7.78524 3.71777Z" fill="white"/>
</g>
<defs>
<clipPath id="clip0_1_2123">
<rect width="22" height="22.5323" fill="white"/>
</clipPath>
</defs>
</svg>
