<svg width="24" height="20" viewBox="0 0 24 20" fill="none" xmlns="http://www.w3.org/2000/svg">
<g clip-path="url(#clip0_1_1783)">
<path d="M17.9922 17.5411C17.9922 16.5005 17.9566 15.5133 18.013 14.532C18.0308 14.2114 18.2149 13.8298 18.448 13.6072C19.0121 13.0727 19.6504 12.6155 20.3941 12.0202C20.3941 12.8872 20.3941 13.5938 20.3941 14.2989C20.3941 15.7092 20.3986 17.1195 20.3927 18.5298C20.3882 19.5437 20.0082 19.9505 19.0269 19.9519C13.1379 19.9579 7.24885 19.9594 1.35982 19.9549C0.412705 19.9549 0.00743539 19.5482 0.00595088 18.5966C-0.00147165 14.1921 1.28605e-05 9.78902 0.00298187 5.38449C0.00298187 4.58731 0.341449 4.06773 0.993147 4.05734C3.43367 4.02171 5.8742 4.04398 8.38005 4.04398C7.56357 4.82483 6.82132 5.56263 6.04047 6.2559C5.88608 6.39247 5.58027 6.39247 5.34423 6.39544C4.38673 6.41028 3.42774 6.40138 2.42718 6.40138C2.42718 10.1557 2.42718 13.8269 2.42718 17.5411C7.60217 17.5411 12.7386 17.5411 17.9922 17.5411Z" fill="#064851"/>
<path d="M16.0149 11.9755C16.0149 10.5741 16.0149 9.36723 16.0149 8.10095C11.404 7.65856 8.31475 9.82743 6.12213 13.6634C6.32848 10.9571 7.13308 8.54778 8.95902 6.56151C10.8176 4.53962 13.2077 3.77064 15.9792 3.73205C15.9792 2.54296 15.9792 1.37317 15.9792 0C18.733 2.06792 21.3264 4.01559 24 6.02264C21.3383 8.00742 18.7538 9.93283 16.0149 11.9755Z" fill="#064851"/>
</g>
<defs>
<clipPath id="clip0_1_1783">
<rect width="24" height="19.9592" fill="white"/>
</clipPath>
</defs>
</svg>
