<svg width="18" height="20" viewBox="0 0 18 20" fill="none" xmlns="http://www.w3.org/2000/svg">
<g clip-path="url(#clip0_1_1793)">
<path d="M12.4235 11.7135C13.2848 12.1973 14.0348 12.7793 14.6626 13.5079C15.932 14.98 16.5364 16.6988 16.5382 18.6342C16.5392 19.4123 15.9068 19.998 15.0913 19.998C11.0663 19.9989 7.04123 19.9989 3.0162 19.9989C2.48937 19.9989 1.96254 20.0017 1.4357 19.998C0.586608 19.9924 -0.0186884 19.4002 -6.45613e-06 18.5558C0.0644464 15.6601 1.33762 13.4481 3.78496 11.9115C3.88772 11.8471 3.99047 11.7826 4.11096 11.706C3.19555 10.3815 2.86955 8.94575 3.23945 7.38487C3.52061 6.19763 4.16141 5.22616 5.13194 4.48449C7.10849 2.97498 9.90051 3.09455 11.7239 4.74323C13.5472 6.39098 14.1217 9.27829 12.4235 11.7135ZM1.3946 18.5763C6.00438 18.5763 10.5609 18.5763 15.1408 18.5763C15.1464 17.3573 14.8428 16.2504 14.2076 15.2406C13.1437 13.5518 11.5576 12.6326 9.56424 12.1927C10.5329 11.7564 11.2344 11.1437 11.6678 10.2526C12.105 9.35395 12.1666 8.41891 11.878 7.47174C11.4035 5.91459 9.97711 4.85346 8.36205 4.8273C6.6788 4.80021 5.23655 5.79129 4.70038 7.35965C4.37064 8.32457 4.41361 9.27922 4.8461 10.2058C5.27485 11.1241 5.99317 11.7499 6.97772 12.1973C5.36359 12.5392 4.02129 13.208 2.97136 14.3841C1.91396 15.5685 1.40021 16.965 1.3946 18.5763Z" fill="#064851"/>
<path d="M14.1376 3.42538C13.4146 3.42538 12.7477 3.42538 12.063 3.42538C12.063 2.95927 12.063 2.52771 12.063 2.05599C12.7458 2.05599 13.4128 2.05599 14.1161 2.05599C14.1161 1.35075 14.1161 0.684737 14.1161 0.000976562C14.5953 0.000976562 15.0372 0.000976562 15.5107 0.000976562C15.5107 0.67633 15.5107 1.33394 15.5107 2.02984C16.1982 2.02984 16.854 2.02984 17.5396 2.02984C17.5396 2.50623 17.5396 2.94713 17.5396 3.42258C16.8839 3.42258 16.2272 3.42258 15.5313 3.42258C15.5313 4.12222 15.5313 4.78917 15.5313 5.48321C15.0502 5.48321 14.6103 5.48321 14.1367 5.48321C14.1376 4.81813 14.1376 4.15025 14.1376 3.42538Z" fill="#064851"/>
</g>
<defs>
<clipPath id="clip0_1_1793">
<rect width="17.5405" height="20" fill="white"/>
</clipPath>
</defs>
</svg>
