<svg width="20" height="18" viewBox="0 0 20 18" fill="none" xmlns="http://www.w3.org/2000/svg">
<path d="M13.9901 3.98711L15.3841 3.23657C15.3841 3.23657 13.3078 0.238999 9.15502 0.0196507C9.15502 0.0196507 4.65122 -0.477463 1.66825 3.52894C1.66825 3.52894 -1.54868 7.62326 0.951784 12.6459C0.951784 12.6459 3.01355 17.3178 8.80395 17.3617C8.80395 17.3617 14.2874 17.4934 16.6123 12.0976C16.6123 12.0976 18.4109 8.89525 16.3709 4.74968L15.0548 5.64884C15.0548 5.64884 17.5115 10.2549 13.2124 14.1373C13.2124 14.1373 8.67223 18.1949 3.60544 13.6765C3.60544 13.6765 -0.978828 9.35571 3.58339 3.6747C3.58339 3.6747 5.90832 1.28391 9.13269 1.61294C9.13297 1.61351 11.8723 1.64501 13.9901 3.98711Z" fill="#969696"/>
<path d="M3.86877 6.52657L6.82969 5.25429L8.14579 8.56628C8.14579 8.56628 14.4628 3.34601 18.7836 2.35894C18.7836 2.35894 21.4304 1.97866 18.9153 3.02415C18.9153 3.02415 14.6968 4.88861 12.4302 7.35958C12.4302 7.35958 9.56411 10.094 7.56105 12.7405L3.86877 6.52657Z" fill="#969696"/>
</svg>
